<?xml version="1.0" encoding="utf-8"?>
<!-- Generator: Adobe Illustrator 20.1.0, SVG Export Plug-In . SVG Version: 6.00 Build 0)  -->
<svg version="1.1" id="Objeto_inteligente_vectorial_copia_xA0_Imagen_1_"
	 xmlns="http://www.w3.org/2000/svg" xmlns:xlink="http://www.w3.org/1999/xlink" x="0px" y="0px" viewBox="0 0 169.2 149.2"
	 enable-background="new 0 0 169.2 149.2" xml:space="preserve">
<path fill="#FF0066" d="M66.9,105c-1.4-2.4-2.6-4.7-4.1-6.9c-4-6-9.4-9.8-16.4-11.6c-4.1-1-8.3-1.5-12.6-1.5
	c-7.3,0.1-14.4,1.4-20.7,5.3C8.6,93,5.2,97,2.2,101.3c-0.6,0.8-1.2,1.7-1.8,2.6c0,0.1-0.1,0.1-0.3,0.1c0-0.4-0.1-0.7-0.1-1
	C0,71.8,0.1,40.8,0,9.7C0,4.4,4.2,0,9.7,0c49.9,0,99.8,0,149.8,0c4.7,0,8.2,2.7,9.5,7.1c0.2,0.6,0.2,1.3,0.2,1.9
	c0,43.7,0,87.4,0,131.2c0,3.9-3,7.7-6.8,8.6c-1.3,0.3-2.6,0.5-3.9,0.5c-5.3,0.1-10.6,0-15.8,0c-1,0-1.3-0.3-1.3-1.3
	c0-6.3,0.2-12.6,0-18.8c-0.2-5-0.5-10.1-1.2-15c-1-6.4-3.9-12.1-8.3-17c-5-5.5-11.1-9.2-18.3-10.9c-5.7-1.4-11.4-1.5-17.1-0.7
	c-5.1,0.7-9.9,2.1-14.4,4.5c-6.1,3.3-10.7,8.2-14.4,14c-0.2,0.3-0.3,0.5-0.5,0.8C67,104.9,67,104.9,66.9,105z M153,46
	c0-3,0-6.1,0-9.1c0-1.9,0-3.8,0-5.8c0-1-0.7-1.7-1.6-1.8c-1-0.1-1.5,0.6-1.7,1.5c-0.1,0.5-0.1,1-0.1,1.4c0,4.6,0,9.2,0,13.8
	c0,4.6,0,9.2,0,13.8c0,1.7,0.6,2.6,1.7,2.6c1,0,1.7-1.1,1.7-2.6C153,55.3,153,50.7,153,46z"/>
<path fill="#FF0066" d="M108.7,149.1c-12.7,0-25.2,0-37.7,0c0-0.3-0.1-0.5-0.1-0.8c0-5.6-0.1-11.1,0.2-16.7
	c0.3-5.3,1.9-10.4,5.7-14.4c2.6-2.8,5.9-4.3,9.6-5c3.7-0.7,7.4-0.6,11.1,0.4c5,1.4,8.1,4.7,9.8,9.5c1,2.9,1.3,5.8,1.4,8.8
	c0,5.5,0,11,0,16.5C108.7,148.1,108.7,148.6,108.7,149.1z"/>
<path fill="#FF0066" d="M39.1,149.2c-0.6,0-1,0-1.4,0c-9.4,0-18.9,0.1-28.3,0c-3.4,0-6.1-1.6-7.9-4.6c-0.2-0.4-0.4-0.9-0.4-1.3
	c0-4-0.1-8,0.1-12c0.2-3.5,0.7-6.9,2.2-10.1c2-4.2,5.5-6.6,9.8-7.9c3.7-1.1,7.5-1.2,11.3-0.9c6.8,0.7,12,4.3,13.4,11.7
	c0.8,4,1,8.2,1.2,12.4c0.2,3.7,0,7.5,0,11.3C39.1,148.2,39.1,148.6,39.1,149.2z"/>
</svg>
